<svg xmlns="http://www.w3.org/2000/svg" viewBox="0 0 1365.00 335.80" width="1365.00" height="335.80" role="img" aria-label="Avarok">
  <title>Avarok</title>
  <defs><linearGradient id="g4" x1="0" y1="0" x2="0" y2="1"><stop offset="0.5" stop-color="#12B981"/><stop offset="0.5" stop-color="#EFB338"/></linearGradient></defs>
  <g transform="translate(0 17.8) scale(0.5)"><g fill="none" stroke-width="76" stroke-linecap="round" stroke-linejoin="round">
    <path d="M38 38L358 318L38 598" stroke="#BE9DF8"/>
    <path d="M318 38L638 318L318 598" stroke="#49C3DB"/>
    <path d="M598 38L918 318L598 598" stroke="url(#g4)"/>
  </g></g>
  <path d="M718.38 174.57C716.41 174.39 714.35 174.56 712.38 174.56C707.88 174.54 703.37 174.53 698.88 174.51C683.88 174.46 668.87 174.68 653.88 174.56C647.42 174.51 640.96 174.29 634.5 174.29C632.96 174.29 627.03 174.19 625.9 174.62C625.6 174.83 624.14 178.21 623.92 178.75C622.4 182.58 620.53 186.28 619.03 190.12C617.45 194.17 615.37 198 613.71 202C612.52 204.86 610.91 207.53 609.7 210.38C608.79 212.53 607.58 214.57 606.7 216.75C605.05 220.82 603.07 224.77 601.47 228.88C600.2 232.14 596.27 241.55 594 243.81C592.53 245.28 589.44 246.47 587.38 246.58C583.06 246.82 579.39 242.73 578.58 238.75C578.29 237.3 578.54 235.77 578.95 234.38C580 230.83 582.78 225.86 584.28 222.25C586.94 215.86 590.38 209.79 592.95 203.38C593.7 201.51 594.71 199.75 595.46 197.88C596.4 195.5 597.67 193.26 598.59 190.88C600.98 184.67 604.1 178.74 606.72 172.62C607.49 170.82 608.46 169.07 609.2 167.25C610.17 164.87 611.47 162.63 612.46 160.25C613.59 157.54 615.09 154.97 616.21 152.25C617.7 148.64 619.71 145.24 621.17 141.62C622.55 138.24 624.36 135.03 625.67 131.62C626.43 129.68 627.42 127.83 628.17 125.88C630.13 120.71 632.71 115.81 634.9 110.75C637.84 103.96 641.14 97.33 643.97 90.5C645.25 87.39 647 84.48 648.3 81.38C649.16 79.3 650.32 77.34 651.17 75.25C652.75 71.34 654.62 67.54 656.22 63.62C657.17 61.3 658.58 59.19 659.54 56.88C661.28 52.68 663.26 48.58 664.95 44.38C665.97 41.86 667.36 39.49 668.41 37C670.36 32.37 672.6 27.87 674.59 23.25C675.7 20.68 677.16 18.23 678.25 15.62C677.95 14.91 674.67 13.59 673.88 13.29C670.56 12.06 667.39 10.4 664.86 7.88C664.51 7.52 664.04 7.18 663.78 6.75C664 6.36 664.44 6.04 664.75 5.72C666.89 3.52 669.65 3.06 672.5 2.28C678.24 0.72 683.82 -1.33 689.5 -3.09C692.71 -4.09 695.89 -5.3 699.25 -4.4C699.81 -3.84 701.47 1.64 701.85 2.75C703.93 8.88 705.29 15.25 707.4 21.38C707.88 22.75 709.03 25.5 708.93 26.88C708.89 27.51 708.63 27.96 708.33 28.5C708.27 28.62 708.14 28.96 708 29.01C704.55 30.31 700.2 27.21 697.25 25.68C696.59 25.34 695.05 24.19 694.38 24.19C693.88 24.52 693.06 26.52 692.8 27.12C691.59 29.93 690.13 32.63 689.04 35.5C687.86 38.62 686.5 41.77 685.01 44.75C684.12 46.53 682.39 48.54 682.36 50.62C682.34 52.54 685.02 56.77 685.93 58.62C687.11 61 688.23 63.42 689.21 65.88C690.42 68.9 692 71.79 693.36 74.75C696.23 80.99 699.12 87.25 701.7 93.62C702.86 96.49 704.49 99.15 705.67 102C707.47 106.32 709.57 110.53 711.34 114.88C712.69 118.2 714.57 121.3 715.92 124.62C718.35 130.63 721.16 136.49 723.59 142.5C726.12 148.76 729.54 154.66 732.16 160.88C735.22 168.14 738.82 175.17 741.71 182.5C742.69 184.96 743.98 187.29 744.96 189.75C746.45 193.5 748.51 197.02 750.05 200.75C750.96 202.95 752.15 205.04 753.05 207.25C755.28 212.74 758.02 218.04 760.33 223.5C761.83 227.04 765.16 231.84 765.54 235.62C766.18 241.92 761.06 248.41 754.38 245.98C753.06 245.5 751.95 245.04 750.88 244.13C749.42 242.9 748.32 240.8 747.53 239.12C745.41 234.63 743.5 230.11 741.65 225.5C736.95 213.77 730.48 202.83 725.72 191.12C724.11 187.16 722.43 183.22 720.84 179.25C720.37 178.08 719.25 175.41 718.38 174.57ZM709.88 156.25C709.97 156.01 707.99 152.12 707.73 151.5C705.72 146.81 703.41 142.19 701.7 137.38C700.49 134 698.8 130.82 697.47 127.5C696.01 123.86 693.98 120.48 692.45 116.88C691.4 114.41 689.99 112.1 688.95 109.62C688.28 108.02 687.36 106.5 686.71 104.88C684.96 100.49 682.74 96.3 681.09 91.88C679.28 87.03 676.92 82.4 674.96 77.62C674.65 76.85 672.8 72.53 672.38 72.19C671.88 72.65 669.92 77.32 669.52 78.25C667.43 83.22 665.31 88.18 663.16 93.12C662.42 94.81 661.41 96.41 660.7 98.12C658.96 102.33 656.86 106.4 655.17 110.62C654.42 112.49 653.42 114.26 652.67 116.12C651.63 118.72 650.22 121.16 649.18 123.75C647.17 128.75 644.51 133.48 642.55 138.5C640.72 143.19 637.99 147.51 636.3 152.25C635.96 153.2 634.36 155.57 634.31 156.25C634.66 156.47 639.11 156.29 639.88 156.29C644.79 156.29 649.71 156.29 654.62 156.3C673.04 156.33 691.46 156.29 709.88 156.25Z" fill="#C9CCD4"/><path d="M812.628 247.0 760.944 133.72H789.736L820.652 206.172L851.804 133.72H879.4159999999999L827.732 247.0Z M936.192 249.36Q920.852 249.36 908.462 241.572Q896.072 233.784 888.874 220.45Q881.676 207.11599999999999 881.676 190.596Q881.676 173.84 888.874 160.50600000000003Q896.072 147.17200000000003 908.462 139.26600000000002Q920.852 131.36 936.192 131.36Q947.048 131.36 955.898 135.372Q964.748 139.38400000000001 970.884 146.228V133.72H996.844V247.0H970.884V234.728Q964.748 241.572 955.898 245.466Q947.048 249.36 936.192 249.36ZM940.44 224.816Q954.836 224.816 963.686 215.14Q972.5360000000001 205.464 972.5360000000001 190.36Q972.5360000000001 175.02 963.686 165.462Q954.836 155.904 940.44 155.904Q926.28 155.904 917.312 165.462Q908.344 175.02 908.344 190.36Q908.344 205.464 917.312 215.14Q926.28 224.816 940.44 224.816Z M1019.636 247.0V133.72H1045.596V145.52Q1050.316 138.912 1057.75 135.13600000000002Q1065.184 131.36 1075.096 131.36Q1091.852 131.36 1103.18 144.34L1086.188 161.804Q1080.052 155.668 1070.612 155.668Q1059.756 155.668 1052.676 162.512Q1045.596 169.356 1045.596 183.988V247.0Z M1165.856 249.36Q1149.336 249.36 1135.884 241.454Q1122.432 233.548 1114.5259999999998 220.096Q1106.62 206.644 1106.62 190.124Q1106.62 173.60399999999998 1114.5259999999998 160.388Q1122.432 147.17200000000003 1135.884 139.26600000000002Q1149.336 131.36 1165.856 131.36Q1182.612 131.36 1196.064 139.14800000000002Q1209.516 146.936 1217.422 160.26999999999998Q1225.328 173.60399999999998 1225.328 190.124Q1225.328 206.644 1217.422 220.096Q1209.516 233.548 1196.064 241.454Q1182.612 249.36 1165.856 249.36ZM1165.856 224.344Q1180.488 224.344 1189.574 214.786Q1198.6599999999999 205.228 1198.6599999999999 190.124Q1198.6599999999999 175.256 1189.456 165.816Q1180.252 156.376 1165.856 156.376Q1151.46 156.376 1142.374 165.93400000000003Q1133.288 175.49200000000002 1133.288 190.124Q1133.288 205.228 1142.374 214.786Q1151.46 224.344 1165.856 224.344Z M1240.8039999999999 247.0V77.08000000000001H1266.764V187.056L1312.548 133.72H1343.464L1295.792 188.0L1345.8239999999998 247.0H1312.7839999999999L1266.764 191.54000000000002V247.0Z" fill="#C9CCD4"/>
</svg>
